# xmcd
#
# Track frame offsets: 
#        150
#        39512
#        76666
#        117763
#        153559
#        165550
#
# Disc length: 2638 seconds
#
# Revision: 0
# Processed by: cddbd v1.5.2PL0 Copyright (c) Steve Scherf et al.
# Submitted via: ExactAudioCopy v0.95b4
#
DISCID=390a4c06
DTITLE=Michael Landau - Hopmunk Tavern, Sebastopol, CA (June 4, 2011)
DYEAR=2011
DGENRE=Blues
TTITLE0=Up From The Skies
TTITLE1=?
TTITLE2=?
TTITLE3=Woodstock
TTITLE4=Wacko
TTITLE5=Renegade Destruction
EXTD=
EXTT0=
EXTT1=
EXTT2=
EXTT3=
EXTT4=
EXTT5=
PLAYORDER=
